<?xml version="1.0" standalone="no"?>
<!DOCTYPE svg PUBLIC "-//W3C//DTD SVG 20010904//EN"
 "http://www.w3.org/TR/2001/REC-SVG-20010904/DTD/svg10.dtd">
<svg version="1.0" xmlns="http://www.w3.org/2000/svg"
 width="840.000000pt" height="640.000000pt" viewBox="0 0 840.000000 640.000000"
 preserveAspectRatio="xMidYMid meet">
<metadata>
Created by potrace 1.16, written by Peter Selinger 2001-2019
</metadata>
<g transform="translate(0.000000,640.000000) scale(0.100000,-0.100000)"
fill="#000000" stroke="none">
<path d="M5368 5977 c-78 -39 -146 -98 -162 -138 -10 -24 -32 -49 -60 -68 -24
-17 -132 -134 -240 -260 -201 -236 -274 -308 -339 -334 -20 -9 -101 -30 -180
-47 -264 -57 -320 -84 -383 -184 -15 -24 -42 -52 -58 -62 -83 -47 -224 -171
-456 -399 -140 -138 -282 -269 -315 -292 -71 -47 -109 -62 -358 -142 -331
-107 -647 -281 -647 -357 0 -22 28 -73 64 -117 62 -75 191 -156 323 -202 29
-11 53 -22 53 -25 0 -4 -42 -49 -92 -101 -65 -66 -110 -102 -151 -122 -84 -41
-69 -73 35 -76 20 -1 39 -5 42 -9 3 -5 -6 -25 -20 -46 -39 -57 -102 -193 -125
-271 -13 -44 -23 -112 -26 -185 -5 -97 -2 -129 16 -200 11 -46 25 -88 31 -94
12 -12 40 11 40 34 0 48 84 289 97 277 2 -3 -6 -28 -17 -57 -33 -85 -15 -102
52 -48 l40 31 -7 -74 c-8 -86 13 -239 45 -339 32 -98 111 -254 179 -356 64
-95 202 -239 223 -231 10 3 12 40 9 160 -4 161 4 271 19 262 4 -3 11 -24 15
-48 12 -68 61 -209 101 -289 89 -176 151 -243 407 -434 323 -243 461 -408 548
-658 13 -37 29 -71 36 -73 31 -12 306 160 452 282 201 168 368 385 436 569 17
45 19 47 28 25 5 -13 6 -52 3 -86 -11 -113 27 -93 85 44 75 181 125 360 154
553 18 116 23 365 11 478 l-8 74 22 -12 c36 -19 46 0 32 61 -7 28 -12 55 -12
60 0 5 27 -4 59 -21 75 -37 81 -31 70 70 -28 246 -29 571 -3 677 6 24 8 25 20
8 7 -9 27 -33 44 -52 52 -56 57 -42 63 195 6 228 21 336 68 477 55 165 108
237 368 500 98 99 186 196 197 215 36 67 16 314 -32 387 -8 13 -24 23 -37 23
-12 0 -83 -21 -157 -47 -76 -26 -143 -44 -153 -40 -15 5 -16 30 -16 239 1 230
-11 346 -43 426 -5 15 -14 58 -19 95 -15 121 -55 184 -128 206 -33 9 -40 16
-45 44 -9 47 -61 126 -92 137 -38 15 -56 12 -106 -13z m113 -27 c26 -15 24
-28 -4 -23 -18 4 -33 -5 -61 -34 -102 -106 -101 -103 -56 -130 38 -22 39 -34
3 -23 -76 22 -112 57 -99 98 7 20 105 94 148 111 31 13 46 13 69 1z m141 -196
c37 -19 55 -57 72 -151 8 -43 21 -105 30 -138 26 -101 36 -220 36 -433 0 -121
4 -211 10 -223 16 -29 49 -24 212 30 l148 49 16 -52 c9 -28 18 -96 21 -152 4
-82 2 -107 -11 -135 -10 -19 -124 -140 -255 -269 -247 -244 -305 -314 -436
-530 -64 -106 -145 -262 -145 -280 0 -6 17 2 38 18 71 56 107 65 134 35 25
-29 30 -76 23 -204 -9 -135 -12 -136 -60 -11 -37 94 -56 97 -78 10 -31 -124
-49 -286 -52 -476 -4 -196 -13 -243 -45 -250 -8 -1 -42 20 -75 49 -80 68 -103
78 -295 133 -324 94 -368 109 -504 177 -152 76 -293 193 -377 312 -43 62 -49
66 -58 48 -6 -11 -11 -31 -11 -45 0 -43 -17 -38 -38 13 -12 26 -48 140 -81
252 -82 280 -127 389 -198 477 -43 53 -57 54 -48 3 l6 -38 -53 14 c-89 24
-222 27 -320 9 -222 -42 -682 -218 -741 -284 -24 -26 -17 -37 41 -66 100 -50
297 -76 404 -53 l38 8 -6 -45 c-9 -65 6 -66 137 -16 60 23 112 41 114 38 2 -2
0 -21 -5 -42 -5 -21 -6 -44 -4 -51 10 -24 127 -48 204 -43 60 5 88 14 186 62
129 63 178 71 194 34 5 -13 20 -64 34 -114 30 -108 89 -239 154 -344 l47 -75
3 64 3 64 26 -39 c112 -170 286 -263 708 -379 72 -19 162 -47 201 -60 65 -24
73 -30 103 -80 95 -156 121 -398 76 -690 -18 -115 -56 -285 -64 -285 -3 0 -14
19 -25 41 -10 23 -37 60 -59 82 l-41 42 -7 -89 c-15 -183 -51 -318 -129 -481
-83 -174 -253 -397 -405 -530 -91 -79 -198 -165 -207 -165 -5 0 19 36 52 81
177 238 243 443 194 596 -9 27 -24 60 -35 73 l-19 25 0 -70 c0 -107 -32 -138
-99 -97 -48 29 -98 98 -163 225 -70 138 -150 229 -253 288 -91 53 -102 55 -65
12 55 -62 84 -137 88 -226 12 -228 -112 -271 -387 -136 -90 44 -116 63 -191
139 -74 75 -95 104 -138 192 -53 105 -84 209 -102 333 -14 102 -12 323 5 450
8 61 15 111 15 112 0 1 -22 -12 -49 -28 -61 -38 -105 -48 -165 -39 -101 15
-135 76 -143 260 -3 63 0 164 6 224 7 59 10 110 8 112 -2 2 -24 -3 -50 -12
-49 -17 -98 -16 -104 2 -4 13 78 138 131 199 l34 40 83 -27 c204 -65 397 -104
561 -115 127 -8 202 8 278 58 54 36 110 101 110 126 0 7 -35 -6 -77 -27 -137
-68 -254 -77 -462 -35 -223 46 -709 223 -835 305 -74 48 -146 121 -146 148 0
38 138 143 287 220 109 56 272 112 497 173 202 54 210 58 247 136 26 55 62 96
237 271 114 114 244 235 290 270 45 34 82 61 82 58 0 -2 -7 -32 -16 -66 -8
-34 -13 -64 -10 -67 3 -4 18 -1 32 6 15 6 28 10 30 9 2 -2 -9 -35 -23 -73 -44
-119 -35 -325 11 -237 9 17 41 60 72 97 31 36 54 68 51 71 -2 3 -30 -16 -61
-41 -69 -57 -70 -53 -11 125 24 73 42 136 40 139 -3 2 -23 -3 -45 -12 -22 -8
-40 -13 -40 -11 0 17 63 138 94 181 52 73 103 94 345 148 111 24 226 55 255
68 57 26 91 63 221 237 144 192 305 370 337 370 5 0 21 -9 35 -20 38 -29 95
-41 186 -39 l80 2 29 -49 c26 -43 28 -56 23 -104 -3 -34 -17 -75 -37 -109
l-30 -55 16 -68 c19 -77 20 -61 -36 -348 -22 -113 -42 -248 -45 -300 -5 -93
-5 -95 22 -120 24 -23 34 -25 113 -24 155 3 367 69 462 144 45 36 79 87 90
135 14 60 5 61 -161 7 -85 -27 -168 -52 -185 -55 l-32 -6 -5 287 c-7 353 -26
465 -86 510 -16 12 -32 35 -36 51 -3 16 -22 55 -41 86 -56 94 -42 114 48 69z"/>
<path d="M4570 5020 c-25 -16 -83 -46 -130 -66 -103 -44 -141 -71 -208 -148
-74 -84 -64 -93 16 -13 37 37 70 67 74 67 3 0 -18 -44 -48 -99 -30 -54 -54
-104 -54 -110 0 -12 161 93 217 142 20 18 56 64 81 102 25 39 58 87 75 108 16
21 28 40 25 42 -2 2 -24 -9 -48 -25z"/>
<path d="M5106 3398 c-30 -63 -68 -161 -85 -217 -16 -57 -37 -111 -47 -122
-38 -43 -130 -6 -231 93 -39 38 -67 59 -76 55 -9 -3 -18 -26 -22 -56 -4 -28
-11 -53 -16 -56 -16 -10 -112 39 -191 97 -43 32 -78 54 -78 48 0 -18 124 -142
185 -185 52 -37 175 -105 189 -105 3 0 1 12 -4 26 -15 39 -12 64 8 64 9 0 58
-23 107 -51 91 -51 241 -129 249 -129 2 0 2 42 -1 93 -9 150 24 409 67 521 6
16 8 31 5 34 -3 3 -29 -46 -59 -110z"/>
</g>
</svg>
